<svg xmlns="http://www.w3.org/2000/svg" xmlns:xlink="http://www.w3.org/1999/xlink" xmlns:inkscape="http://www.inkscape.org/namespaces/inkscape" version="1.1" width="532.817" height="504.277" viewBox="0 0 532.817 504.277">
<path transform="matrix(1,0,0,-1,266.409,31.630005)" d="M95.123-31.27213H-95.123C-98.97464-31.27213-102.09694-34.39441-102.09694-38.24606V-361.41773C-102.09694-365.26936-98.97464-368.39167-95.123-368.39167H95.123C98.97464-368.39167 102.09694-365.26936 102.09694-361.41773V-38.24606C102.09694-34.39441 98.97464-31.27213 95.123-31.27213ZM-102.09694-368.39167" fill="#fafafa"/>
<path transform="matrix(1,0,0,-1,266.409,31.630005)" stroke-width=".3985" stroke-linecap="butt" stroke-miterlimit="10" stroke-linejoin="miter" fill="none" stroke="#e5e6e5" d="M95.123-31.27213H-95.123C-98.97464-31.27213-102.09694-34.39441-102.09694-38.24606V-361.41773C-102.09694-365.26936-98.97464-368.39167-95.123-368.39167H95.123C98.97464-368.39167 102.09694-365.26936 102.09694-361.41773V-38.24606C102.09694-34.39441 98.97464-31.27213 95.123-31.27213ZM-102.09694-368.39167"/>
<path transform="matrix(1,0,0,-1,266.409,31.630005)" d="M77.5326 23.38603H-77.5326C-80.28377 23.38603-82.51398 21.15582-82.51398 18.40465V-18.40465C-82.51398-21.15582-80.28377-23.38603-77.5326-23.38603H77.5326C80.28377-23.38603 82.51398-21.15582 82.51398-18.40465V18.40465C82.51398 21.15582 80.28377 23.38603 77.5326 23.38603ZM-82.51398-23.38603" fill="#fafafa"/>
<path transform="matrix(1,0,0,-1,266.409,31.630005)" stroke-width=".54794" stroke-linecap="butt" stroke-miterlimit="10" stroke-linejoin="miter" fill="none" stroke="#9e9e9e" d="M77.5326 23.38603H-77.5326C-80.28377 23.38603-82.51398 21.15582-82.51398 18.40465V-18.40465C-82.51398-21.15582-80.28377-23.38603-77.5326-23.38603H77.5326C80.28377-23.38603 82.51398-21.15582 82.51398-18.40465V18.40465C82.51398 21.15582 80.28377 23.38603 77.5326 23.38603ZM-82.51398-23.38603"/>
<text xml:space="preserve" transform="matrix(1 0 -0 1 -.000015258789 504.277)" font-size="8.9664" font-family="Computer Modern" font-weight="bold"><tspan y="-483.357" x="217.543 220.51088 225.54103 230.57118 235.60134 242.29027 246.77347 251.43599 254.77149 258.39393 260.68934 265.0739 267.36933 270.7138 278.2725 282.0563 286.63813 291.66828 296.69844 301.28025 306.3104 310.69499">Inputvorticitysequence</tspan></text>
<text xml:space="preserve" transform="matrix(1 0 -0 1 -.000015258789 504.277)" font-size="8.9664" font-family="Computer Modern" font-weight="bold" font-style="italic"><tspan y="-470.406" x="253.86499">&#x03c9;</tspan></text>
<text xml:space="preserve" transform="matrix(1 0 -0 1 -.000015258789 504.277)" font-size="5.9776" font-family="Computer Modern" font-style="italic"><tspan y="-469.34303" x="260.819">t</tspan></text>
<text xml:space="preserve" transform="matrix(1 0 -0 1 -.000015258789 504.277)" font-size="5.9776" font-family="Computer Modern" font-style="italic"><tspan y="-469.34303" x="263.67033">&#x2212;</tspan></text>
<text xml:space="preserve" transform="matrix(1 0 -0 1 -.000015258789 504.277)" font-size="5.9776" font-family="Computer Modern" font-style="italic"><tspan y="-469.34303" x="269.42677">k</tspan></text>
<text xml:space="preserve" transform="matrix(1 0 -0 1 -.000015258789 504.277)" font-size="5.9776" font-family="Computer Modern"><tspan y="-469.34303" x="273.50349">:</tspan></text>
<text xml:space="preserve" transform="matrix(1 0 -0 1 -.000015258789 504.277)" font-size="5.9776" font-family="Computer Modern" font-style="italic"><tspan y="-469.34303" x="275.6076">t</tspan></text>
<text xml:space="preserve" transform="matrix(1 0 -0 1 -.000015258789 504.277)" font-size="6.9738" font-family="Computer Modern"><tspan y="-457.454" x="228.682 231.52034 235.34896 238.9056 242.94342 246.23506">shape:</tspan></text>
<text xml:space="preserve" transform="matrix(1 0 -0 1 -.000015258789 504.277)" font-size="6.9738" font-family="Computer Modern"><tspan y="-457.454" x="252.89504">[</tspan></text>
<text xml:space="preserve" transform="matrix(1 0 -0 1 -.000015258789 504.277)" font-size="6.9738" font-family="Computer Modern" font-style="italic"><tspan y="-457.454" x="255.14757 261.50767 265.23167 270.58058 274.30458 280.93666 284.6676 291.94129 295.66529">B,T,H,W,C</tspan></text>
<text xml:space="preserve" transform="matrix(1 0 -0 1 -.000015258789 504.277)" font-size="6.9738" font-family="Computer Modern"><tspan y="-457.454" x="301.865">]</tspan></text>
<path transform="matrix(1,0,0,-1,266.409,31.630005)" d="M77.5326-41.50885H-77.5326C-80.28377-41.50885-82.51398-43.73906-82.51398-46.49023V-83.29955C-82.51398-86.05074-80.28377-88.28093-77.5326-88.28093H77.5326C80.28377-88.28093 82.51398-86.05074 82.51398-83.29955V-46.49023C82.51398-43.73906 80.28377-41.50885 77.5326-41.50885ZM-82.51398-88.28093" fill="#fcfcfc"/>
<path transform="matrix(1,0,0,-1,266.409,31.630005)" stroke-width=".54794" stroke-linecap="butt" stroke-miterlimit="10" stroke-linejoin="miter" fill="none" stroke="#9e9e9e" d="M77.5326-41.50885H-77.5326C-80.28377-41.50885-82.51398-43.73906-82.51398-46.49023V-83.29955C-82.51398-86.05074-80.28377-88.28093-77.5326-88.28093H77.5326C80.28377-88.28093 82.51398-86.05074 82.51398-83.29955V-46.49023C82.51398-43.73906 80.28377-41.50885 77.5326-41.50885ZM-82.51398-88.28093"/>
<text xml:space="preserve" transform="matrix(1 0 -0 1 -.000015258789 504.27699)" font-size="8.9664" font-family="Computer Modern" font-weight="bold"><tspan y="-412.145" x="243.476 249.23242 257.0063 262.30543 266.8962 271.92637 276.9565 279.24296 284.2731">Embedding</tspan></text>
<text xml:space="preserve" transform="matrix(1 0 -0 1 -.000015258789 504.27699)" font-size="8.9664" font-family="Computer Modern" font-weight="bold"><tspan y="-398.197" x="233.443">v</tspan></text>
<text xml:space="preserve" transform="matrix(1 0 -0 1 -.000015258789 504.27699)" font-size="5.9776" font-family="Computer Modern" font-style="italic"><tspan y="-397.201" x="239.043">t</tspan></text>
<text xml:space="preserve" transform="matrix(1 0 -0 1 -.000015258789 504.27699)" font-size="8.9664" font-family="Computer Modern"><tspan y="-398.197" x="251.003">=</tspan></text>
<text xml:space="preserve" transform="matrix(1 0 -0 1 -.000015258789 504.27699)" font-size="8.9664" font-family="Computer Modern" font-style="italic"><tspan y="-398.197" x="266.77494">W</tspan></text>
<text xml:space="preserve" transform="matrix(1 0 -0 1 -.000015258789 504.27699)" font-size="5.9776" font-family="Computer Modern"><tspan y="-397.13499" x="275.484 278.74778 284.5281">emb</tspan></text>
<text xml:space="preserve" transform="matrix(1 0 -0 1 -.000015258789 504.27699)" font-size="8.9664" font-family="Computer Modern" font-weight="bold" font-style="italic"><tspan y="-398.197" x="289.071">&#x03c9;</tspan></text>
<text xml:space="preserve" transform="matrix(1 0 -0 1 -.000015258789 504.27699)" font-size="5.9776" font-family="Computer Modern" font-style="italic"><tspan y="-397.201" x="296.026">t</tspan></text>
<path transform="matrix(1,0,0,-1,266.409,31.630005)" d="M88.87137-106.40376H-88.87137C-91.62254-106.40376-93.85275-108.63397-93.85275-111.38515V-157.82707C-93.85275-160.57825-91.62254-162.80846-88.87137-162.80846H88.87137C91.62254-162.80846 93.85275-160.57825 93.85275-157.82707V-111.38515C93.85275-108.63397 91.62254-106.40376 88.87137-106.40376ZM-93.85275-162.80846" fill="#ecf3fa"/>
<path transform="matrix(1,0,0,-1,266.409,31.630005)" stroke-width=".54794" stroke-linecap="butt" stroke-miterlimit="10" stroke-linejoin="miter" fill="none" stroke="#87a2c1" d="M88.87137-106.40376H-88.87137C-91.62254-106.40376-93.85275-108.63397-93.85275-111.38515V-157.82707C-93.85275-160.57825-91.62254-162.80846-88.87137-162.80846H88.87137C91.62254-162.80846 93.85275-160.57825 93.85275-157.82707V-111.38515C93.85275-108.63397 91.62254-106.40376 88.87137-106.40376ZM-93.85275-162.80846"/>
<text xml:space="preserve" transform="matrix(1 0 -0 1 0 504.27699)" font-size="8.9664" font-family="Computer Modern" font-weight="bold"><tspan y="-354.041" x="216.92 222.39847 229.51779 236.63712 241.56864 251.76343 255.54724 260.5774 265.28477 268.9072 271.2026 275.90998 281.27189 286.2034 291.5115 296.09333 299.42884 304.1362 307.75865 312.4122">FNO2Dspatialoperator</tspan></text>
<text xml:space="preserve" transform="matrix(1 0 -0 1 0 504.27699)" font-size="6.9738" font-family="Computer Modern"><tspan y="-343.08198" x="214.568 218.80806 223.04813 228.1111">FFT2</tspan></text>
<text xml:space="preserve" transform="matrix(1 0 -0 1 0 504.27699)" font-size="6.9738" font-family="Computer Modern" font-style="italic"><tspan y="-343.08198" x="234.88266">&#x2192;</tspan></text>
<text xml:space="preserve" transform="matrix(1 0 -0 1 0 504.27699)" font-size="6.9738" font-family="Computer Modern"><tspan y="-343.08198" x="245.90126 248.43276 251.7244 254.40233 257.95896 259.7303 263.5589 266.85054 273.74763 277.78547 281.48857 285.31718 287.84867 289.62 292.91163 298.5116 304.3975 308.30284 312.13145 315.43006">retainedFouriermodes</tspan></text>
<text xml:space="preserve" transform="matrix(1 0 -0 1 0 504.27699)" font-size="6.9738" font-family="Computer Modern" font-style="italic"><tspan y="-333.11897" x="206.715">&#x2192;</tspan></text>
<text xml:space="preserve" transform="matrix(1 0 -0 1 0 504.27699)" font-size="6.9738" font-family="Computer Modern"><tspan y="-333.11897" x="217.72663 219.49797 222.78961 226.14402 228.6755 232.50412 235.79576 242.69284 245.53118 249.569 252.86064 256.15229 258.83024 261.36174 264.91838 269.75819 274.61894 277.91056 279.6819 283.38499 287.2136 289.89155">learnedspectralweights</tspan></text>
<text xml:space="preserve" transform="matrix(1 0 -0 1 0 504.27699)" font-size="6.9738" font-family="Computer Modern" font-style="italic"><tspan y="-333.11897" x="295.79838">&#x2192;</tspan></text>
<text xml:space="preserve" transform="matrix(1 0 -0 1 0 504.27699)" font-size="6.9738" font-family="Computer Modern"><tspan y="-333.11897" x="306.81697 308.87425 313.11433 317.3544 322.4174">IFFT2</tspan></text>
<text xml:space="preserve" transform="matrix(1 0 -0 1 0 504.27699)" font-size="6.9738" font-family="Computer Modern" font-style="italic"><tspan y="-318.17497" x="213.47499">K</tspan></text>
<text xml:space="preserve" transform="matrix(1 0 -0 1 0 504.27699)" font-size="4.9813" font-family="Computer Modern"><tspan y="-321.18196" x="219.56299">2</tspan></text>
<text xml:space="preserve" transform="matrix(1 0 -0 1 0 504.27699)" font-size="4.9813" font-family="Computer Modern" font-style="italic"><tspan y="-321.18196" x="222.95526">D</tspan><tspan y="-316.18296" x="219.55399">&#x03b8;</tspan></text>
<text xml:space="preserve" transform="matrix(1 0 -0 1 0 504.27699)" font-size="6.9738" font-family="Computer Modern"><tspan y="-318.17497" x="235.71999">=</tspan></text>
<text xml:space="preserve" transform="matrix(1 0 -0 1 0 504.27699)" font-size="6.9738" font-family="Computer Modern" font-style="italic"><tspan y="-318.17497" x="248.40534">F</tspan></text>
<text xml:space="preserve" transform="matrix(1 0 -0 1 0 504.27699)" font-size="4.9813" font-family="Computer Modern" font-style="italic"><tspan y="-321.40797" x="254.81198">&#x2212;</tspan></text>
<text xml:space="preserve" transform="matrix(1 0 -0 1 0 504.27699)" font-size="4.9813" font-family="Computer Modern"><tspan y="-321.40797" x="260.20674">1</tspan><tspan y="-315.81898" x="254.10898">2</tspan></text>
<text xml:space="preserve" transform="matrix(1 0 -0 1 0 504.27699)" font-size="4.9813" font-family="Computer Modern" font-style="italic"><tspan y="-315.81898" x="257.50126">D</tspan></text>
<text xml:space="preserve" transform="matrix(1 0 -0 1 0 504.27699)" font-size="6.9738" font-family="Computer Modern" font-style="italic"><tspan y="-318.17497" x="265.45799">R</tspan></text>
<text xml:space="preserve" transform="matrix(1 0 -0 1 0 504.27699)" font-size="4.9813" font-family="Computer Modern" font-style="italic"><tspan y="-317.11796" x="271.46">&#x03b8;</tspan></text>
<text xml:space="preserve" transform="matrix(1 0 -0 1 0 504.27699)" font-size="6.9738" font-family="Computer Modern"><tspan y="-318.17497" x="275.503">(</tspan></text>
<text xml:space="preserve" transform="matrix(1 0 -0 1 0 504.27699)" font-size="6.9738" font-family="Computer Modern" font-style="italic"><tspan y="-318.17497" x="278.6133">k</tspan></text>
<text xml:space="preserve" transform="matrix(1 0 -0 1 0 504.27699)" font-size="4.9813" font-family="Computer Modern" font-style="italic"><tspan y="-317.17897" x="282.852">x</tspan></text>
<text xml:space="preserve" transform="matrix(1 0 -0 1 0 504.27699)" font-size="6.9738" font-family="Computer Modern" font-style="italic"><tspan y="-318.17497" x="287.29399 291.01799">,k</tspan></text>
<text xml:space="preserve" transform="matrix(1 0 -0 1 0 504.27699)" font-size="4.9813" font-family="Computer Modern" font-style="italic"><tspan y="-317.17897" x="295.25599">y</tspan></text>
<text xml:space="preserve" transform="matrix(1 0 -0 1 0 504.27699)" font-size="6.9738" font-family="Computer Modern"><tspan y="-318.17497" x="299.572">)</tspan></text>
<text xml:space="preserve" transform="matrix(1 0 -0 1 0 504.27699)" font-size="6.9738" font-family="Computer Modern" font-style="italic"><tspan y="-318.17497" x="304.0422">F</tspan></text>
<text xml:space="preserve" transform="matrix(1 0 -0 1 0 504.27699)" font-size="4.9813" font-family="Computer Modern"><tspan y="-317.17295" x="309.753">2</tspan></text>
<text xml:space="preserve" transform="matrix(1 0 -0 1 0 504.27699)" font-size="4.9813" font-family="Computer Modern" font-style="italic"><tspan y="-317.17295" x="313.14527">D</tspan></text>
<path transform="matrix(1,0,0,-1,266.409,31.630005)" d="M77.5326-180.93128H-77.5326C-80.28377-180.93128-82.51398-183.16149-82.51398-185.91266V-222.72197C-82.51398-225.47315-80.28377-227.70336-77.5326-227.70336H77.5326C80.28377-227.70336 82.51398-225.47315 82.51398-222.72197V-185.91266C82.51398-183.16149 80.28377-180.93128 77.5326-180.93128ZM-82.51398-227.70336" fill="#ecf3fa"/>
<path transform="matrix(1,0,0,-1,266.409,31.630005)" stroke-width=".54794" stroke-linecap="butt" stroke-miterlimit="10" stroke-linejoin="miter" fill="none" stroke="#a2b7cf" d="M77.5326-180.93128H-77.5326C-80.28377-180.93128-82.51398-183.16149-82.51398-185.91266V-222.72197C-82.51398-225.47315-80.28377-227.70336-77.5326-227.70336H77.5326C80.28377-227.70336 82.51398-225.47315 82.51398-222.72197V-185.91266C82.51398-183.16149 80.28377-180.93128 77.5326-180.93128ZM-82.51398-227.70336"/>
<text xml:space="preserve" transform="matrix(1 0 -0 1 -.000015258789 504.27699)" font-size="8.9664" font-family="Computer Modern" font-weight="bold"><tspan y="-273.314" x="216.935 222.41347 227.72158 232.3034 236.68798 240.3104 243.64589 248.35326 253.71517 257.499 262.52915 267.2365 270.85896 273.15437 277.86174 283.22364 286.23634 290.81816 295.5255 299.14796 304.1781 307.52259 312.1044">Spectralspatialfeatures</tspan></text>
<text xml:space="preserve" transform="matrix(1 0 -0 1 -.000015258789 504.27699)" font-size="8.9664" font-family="Computer Modern" font-weight="bold"><tspan y="-259.366" x="233.416">z</tspan></text>
<text xml:space="preserve" transform="matrix(1 0 -0 1 -.000015258789 504.27699)" font-size="5.9776" font-family="Computer Modern" font-style="italic"><tspan y="-258.37" x="238.131">t</tspan></text>
<text xml:space="preserve" transform="matrix(1 0 -0 1 -.000015258789 504.27699)" font-size="8.9664" font-family="Computer Modern"><tspan y="-259.366" x="250.08699">=</tspan></text>
<text xml:space="preserve" transform="matrix(1 0 -0 1 -.000015258789 504.27699)" font-size="8.9664" font-family="Computer Modern" font-style="italic"><tspan y="-259.366" x="265.85893">K</tspan></text>
<text xml:space="preserve" transform="matrix(1 0 -0 1 -.000015258789 504.27699)" font-size="5.9776" font-family="Computer Modern"><tspan y="-263.175" x="272.974">2</tspan></text>
<text xml:space="preserve" transform="matrix(1 0 -0 1 -.000015258789 504.27699)" font-size="5.9776" font-family="Computer Modern" font-style="italic"><tspan y="-263.175" x="276.6263">D</tspan><tspan y="-257.50999" x="272.875">&#x03b8;</tspan></text>
<text xml:space="preserve" transform="matrix(1 0 -0 1 -.000015258789 504.27699)" font-size="8.9664" font-family="Computer Modern"><tspan y="-259.36598" x="283.286">(</tspan></text>
<text xml:space="preserve" transform="matrix(1 0 -0 1 -.000015258789 504.27699)" font-size="8.9664" font-family="Computer Modern" font-weight="bold"><tspan y="-259.36598" x="286.87257">v</tspan></text>
<text xml:space="preserve" transform="matrix(1 0 -0 1 -.000015258789 504.27699)" font-size="5.9776" font-family="Computer Modern" font-style="italic"><tspan y="-258.36997" x="292.47">t</tspan></text>
<text xml:space="preserve" transform="matrix(1 0 -0 1 -.000015258789 504.27699)" font-size="8.9664" font-family="Computer Modern"><tspan y="-259.36598" x="295.818">)</tspan></text>
<path transform="matrix(1,0,0,-1,266.409,31.630005)" d="M83.20209-245.82619H-83.20209C-85.95328-245.82619-88.18347-248.0564-88.18347-250.80757V-288.27864C-88.18347-291.0298-85.95328-293.26-83.20209-293.26H83.20209C85.95328-293.26 88.18347-291.0298 88.18347-288.27864V-250.80757C88.18347-248.0564 85.95328-245.82619 83.20209-245.82619ZM-88.18347-293.26" fill="#ecf7f1"/>
<path transform="matrix(1,0,0,-1,266.409,31.630005)" stroke-width=".54794" stroke-linecap="butt" stroke-miterlimit="10" stroke-linejoin="miter" fill="none" stroke="#8bb19e" d="M83.20209-245.82619H-83.20209C-85.95328-245.82619-88.18347-248.0564-88.18347-250.80757V-288.27864C-88.18347-291.0298-85.95328-293.26-83.20209-293.26H83.20209C85.95328-293.26 88.18347-291.0298 88.18347-288.27864V-250.80757C88.18347-248.0564 85.95328-245.82619 83.20209-245.82619ZM-88.18347-293.26"/>
<text xml:space="preserve" transform="matrix(1 0 -0 1 0 504.277)" font-size="8.9664" font-family="Computer Modern" font-weight="bold"><tspan y="-214.62" x="223.368 228.84647 232.46889 237.17626 240.79868 248.45598 253.93445 258.9646 263.67198 268.05656 275.70487 284.474 289.05583 296.82969 301.49223 304.82774">StateSpaceMemory</tspan></text>
<text xml:space="preserve" transform="matrix(1 0 -0 1 0 504.277)" font-size="8.9664" font-family="Computer Modern" font-weight="bold"><tspan y="-200.672" x="222.187">h</tspan></text>
<text xml:space="preserve" transform="matrix(1 0 -0 1 0 504.277)" font-size="5.9776" font-family="Computer Modern" font-style="italic"><tspan y="-199.676" x="228.081">t</tspan></text>
<text xml:space="preserve" transform="matrix(1 0 -0 1 0 504.277)" font-size="5.9776" font-family="Computer Modern"><tspan y="-199.676" x="230.93231 236.52136">+1</tspan></text>
<text xml:space="preserve" transform="matrix(1 0 -0 1 0 504.277)" font-size="8.9664" font-family="Computer Modern"><tspan y="-200.672" x="248.508">=</tspan></text>
<path transform="matrix(1,0,0,-1,263.51,296.153)" stroke-width=".379" stroke-linecap="butt" stroke-miterlimit="10" stroke-linejoin="miter" fill="none" stroke="#000000" d="M0 0H6.91"/>
<text xml:space="preserve" transform="matrix(1 0 -0 1 0 504.277)" font-size="8.9664" font-family="Computer Modern" font-style="italic"><tspan y="-200.672" x="263.51">A</tspan></text>
<text xml:space="preserve" transform="matrix(1 0 -0 1 0 504.277)" font-size="8.9664" font-family="Computer Modern" font-weight="bold"><tspan y="-200.672" x="270.4231">h</tspan></text>
<text xml:space="preserve" transform="matrix(1 0 -0 1 0 504.277)" font-size="5.9776" font-family="Computer Modern" font-style="italic"><tspan y="-199.676" x="276.315">t</tspan></text>
<text xml:space="preserve" transform="matrix(1 0 -0 1 0 504.277)" font-size="8.9664" font-family="Computer Modern"><tspan y="-200.672" x="283.822">+</tspan></text>
<path transform="matrix(1,0,0,-1,295.147,296.153)" stroke-width=".379" stroke-linecap="butt" stroke-miterlimit="10" stroke-linejoin="miter" fill="none" stroke="#000000" d="M0 0H7.42"/>
<text xml:space="preserve" transform="matrix(1 0 -0 1 0 504.277)" font-size="8.9664" font-family="Computer Modern" font-style="italic"><tspan y="-200.672" x="295.147">B</tspan></text>
<text xml:space="preserve" transform="matrix(1 0 -0 1 0 504.277)" font-size="8.9664" font-family="Computer Modern" font-weight="bold"><tspan y="-200.672" x="302.5712">z</tspan></text>
<text xml:space="preserve" transform="matrix(1 0 -0 1 0 504.277)" font-size="5.9776" font-family="Computer Modern" font-style="italic"><tspan y="-199.676" x="307.282">t</tspan></text>
<text xml:space="preserve" transform="matrix(1 0 -0 1 0 504.277)" font-size="6.9738" font-family="Computer Modern"><tspan y="-186.72499" x="203.18003 206.01836 208.69629 212.25293 216.08155 217.85289 224.213 226.89093 229.42243 232.97907 236.80768 239.64601 241.41736 244.09529 245.86664 249.56974 253.39835 258.53108 262.23417 265.7908 268.46876 271.76039 278.65748 281.18898 284.4806 287.31895 289.09028 292.91889 296.7475 300.30415 305.1509 311.0368 314.32844 320.21434 323.7082 326.2397">stabletransition,gatedresidualmemory</tspan></text>
<path transform="matrix(1,0,0,-1,266.409,31.630005)" d="M77.5326-311.38285H-77.5326C-80.28377-311.38285-82.51398-313.61305-82.51398-316.3642V-353.17353C-82.51398-355.9247-80.28377-358.1549-77.5326-358.1549H77.5326C80.28377-358.1549 82.51398-355.9247 82.51398-353.17353V-316.3642C82.51398-313.61305 80.28377-311.38285 77.5326-311.38285ZM-82.51398-358.1549" fill="#fcfcfc"/>
<path transform="matrix(1,0,0,-1,266.409,31.630005)" stroke-width=".54794" stroke-linecap="butt" stroke-miterlimit="10" stroke-linejoin="miter" fill="none" stroke="#9e9e9e" d="M77.5326-311.38285H-77.5326C-80.28377-311.38285-82.51398-313.61305-82.51398-316.3642V-353.17353C-82.51398-355.9247-80.28377-358.1549-77.5326-358.1549H77.5326C80.28377-358.1549 82.51398-355.9247 82.51398-353.17353V-316.3642C82.51398-313.61305 80.28377-311.38285 77.5326-311.38285ZM-82.51398-358.1549"/>
<text xml:space="preserve" transform="matrix(1 0 -0 1 -.000015258789 504.277)" font-size="8.9664" font-family="Computer Modern" font-weight="bold"><tspan y="-142.823" x="245.419 251.72238 255.05788 259.9894 262.5538 267.13563 271.5202 275.14265 277.43806 282.36958">Projection</tspan></text>
<text xml:space="preserve" transform="matrix(1 0 -0 1 -.000015258789 504.277)" font-size="8.9664" font-family="Computer Modern"><tspan y="-128.999" x="222.875">&#xfffd;</tspan></text>
<text xml:space="preserve" transform="matrix(1 0 -0 1 -.000015258789 504.277)" font-size="8.9664" font-family="Computer Modern" font-weight="bold" font-style="italic"><tspan y="-128.875" x="221.957">&#x03c9;</tspan></text>
<text xml:space="preserve" transform="matrix(1 0 -0 1 -.000015258789 504.277)" font-size="5.9776" font-family="Computer Modern" font-style="italic"><tspan y="-127.879" x="228.912">t</tspan></text>
<text xml:space="preserve" transform="matrix(1 0 -0 1 -.000015258789 504.277)" font-size="5.9776" font-family="Computer Modern"><tspan y="-127.879" x="231.76332 237.35237">+1</tspan></text>
<text xml:space="preserve" transform="matrix(1 0 -0 1 -.000015258789 504.277)" font-size="8.9664" font-family="Computer Modern"><tspan y="-128.875" x="248.519">=</tspan></text>
<text xml:space="preserve" transform="matrix(1 0 -0 1 -.000015258789 504.277)" font-size="8.9664" font-family="Computer Modern" font-style="italic"><tspan y="-128.875" x="262.6949">W</tspan></text>
<text xml:space="preserve" transform="matrix(1 0 -0 1 -.000015258789 504.277)" font-size="5.9776" font-family="Computer Modern"><tspan y="-127.879" x="271.405 275.44587 278.32707 282.36793">proj</tspan></text>
<text xml:space="preserve" transform="matrix(1 0 -0 1 -.000015258789 504.277)" font-size="8.9664" font-family="Computer Modern" font-style="italic"><tspan y="-128.875" x="285.158">C</tspan></text>
<text xml:space="preserve" transform="matrix(1 0 -0 1 -.000015258789 504.277)" font-size="8.9664" font-family="Computer Modern" font-weight="bold"><tspan y="-128.875" x="292.37596">h</tspan></text>
<text xml:space="preserve" transform="matrix(1 0 -0 1 -.000015258789 504.277)" font-size="5.9776" font-family="Computer Modern" font-style="italic"><tspan y="-127.879" x="298.26899">t</tspan></text>
<text xml:space="preserve" transform="matrix(1 0 -0 1 -.000015258789 504.277)" font-size="5.9776" font-family="Computer Modern"><tspan y="-127.879" x="301.1203 306.70936">+1</tspan></text>
<path transform="matrix(1,0,0,-1,266.409,31.630005)" d="M77.5326-376.27775H-77.5326C-80.28377-376.27775-82.51398-378.50794-82.51398-381.25914V-418.06846C-82.51398-420.8196-80.28377-423.04985-77.5326-423.04985H77.5326C80.28377-423.04985 82.51398-420.8196 82.51398-418.06846V-381.25914C82.51398-378.50794 80.28377-376.27775 77.5326-376.27775ZM-82.51398-423.04985" fill="#fafafa"/>
<path transform="matrix(1,0,0,-1,266.409,31.630005)" stroke-width=".54794" stroke-linecap="butt" stroke-miterlimit="10" stroke-linejoin="miter" fill="none" stroke="#9e9e9e" d="M77.5326-376.27775H-77.5326C-80.28377-376.27775-82.51398-378.50794-82.51398-381.25914V-418.06846C-82.51398-420.8196-80.28377-423.04985-77.5326-423.04985H77.5326C80.28377-423.04985 82.51398-420.8196 82.51398-418.06846V-381.25914C82.51398-378.50794 80.28377-376.27775 77.5326-376.27775ZM-82.51398-423.04985"/>
<text xml:space="preserve" transform="matrix(1 0 -0 1 -.000015258789 504.277)" font-size="8.9664" font-family="Computer Modern" font-weight="bold"><tspan y="-83.699" x="214.925 221.22838 224.56388 229.1457 234.17586 236.47126 240.85582 244.47824 249.06008 257.1657 260.1784 265.20857 268.82203 273.86116 277.19667 284.84498 289.3282 293.99073 297.32624 300.94868 303.2351 307.6197 309.9151 313.26856">Predictedfuturevorticity</tspan></text>
<text xml:space="preserve" transform="matrix(1 0 -0 1 -.000015258789 504.277)" font-size="8.9664" font-family="Computer Modern"><tspan y="-70.871997" x="257.553">&#xfffd;</tspan></text>
<text xml:space="preserve" transform="matrix(1 0 -0 1 -.000015258789 504.277)" font-size="8.9664" font-family="Computer Modern" font-weight="bold" font-style="italic"><tspan y="-70.746997" x="256.63603">&#x03c9;</tspan></text>
<text xml:space="preserve" transform="matrix(1 0 -0 1 -.000015258789 504.277)" font-size="5.9776" font-family="Computer Modern" font-style="italic"><tspan y="-69.75099" x="263.59004">t</tspan></text>
<text xml:space="preserve" transform="matrix(1 0 -0 1 -.000015258789 504.277)" font-size="5.9776" font-family="Computer Modern"><tspan y="-69.75099" x="266.44136 272.0304">+1</tspan></text>
<text xml:space="preserve" transform="matrix(1 0 -0 1 -.000015258789 504.277)" font-size="6.9738" font-family="Computer Modern"><tspan y="-57.79599" x="229.37104 232.20937 236.03798 239.59462 243.63245 246.92409">shape:</tspan></text>
<text xml:space="preserve" transform="matrix(1 0 -0 1 -.000015258789 504.277)" font-size="6.9738" font-family="Computer Modern"><tspan y="-57.79599" x="253.58406">[</tspan></text>
<text xml:space="preserve" transform="matrix(1 0 -0 1 -.000015258789 504.277)" font-size="6.9738" font-family="Computer Modern" font-style="italic"><tspan y="-57.79599" x="255.8366 262.1967">B,</tspan></text>
<text xml:space="preserve" transform="matrix(1 0 -0 1 -.000015258789 504.277)" font-size="6.9738" font-family="Computer Modern"><tspan y="-57.79599" x="265.9207">1</tspan></text>
<text xml:space="preserve" transform="matrix(1 0 -0 1 -.000015258789 504.277)" font-size="6.9738" font-family="Computer Modern" font-style="italic"><tspan y="-57.79599" x="269.89576 273.61976 280.25184 283.97584 291.25648 294.98048">,H,W,C</tspan></text>
<text xml:space="preserve" transform="matrix(1 0 -0 1 -.000015258789 504.277)" font-size="6.9738" font-family="Computer Modern"><tspan y="-57.79599" x="301.18019">]</tspan></text>
<path transform="matrix(1,0,0,-1,266.409,31.630005)" d="M-117.80754-384.41523H-214.18654C-216.93772-384.41523-219.16793-386.64543-219.16793-389.3966V-409.93095C-219.16793-412.68214-216.93772-414.91236-214.18654-414.91236H-117.80754C-115.05637-414.91236-112.82616-412.68214-112.82616-409.93095V-389.3966C-112.82616-386.64543-115.05637-384.41523-117.80754-384.41523ZM-219.16793-414.91236" fill="#fcf3e8"/>
<path transform="matrix(1,0,0,-1,266.409,31.630005)" stroke-width=".54794" stroke-linecap="butt" stroke-miterlimit="10" stroke-linejoin="miter" fill="none" stroke="#d4a373" d="M-117.80754-384.41523H-214.18654C-216.93772-384.41523-219.16793-386.64543-219.16793-389.3966V-409.93095C-219.16793-412.68214-216.93772-414.91236-214.18654-414.91236H-117.80754C-115.05637-414.91236-112.82616-412.68214-112.82616-409.93095V-389.3966C-112.82616-386.64543-115.05637-384.41523-117.80754-384.41523ZM-219.16793-414.91236"/>
<text xml:space="preserve" transform="matrix(1 0 -0 1 -.0000076293949 504.277)" font-size="8.9664" font-family="Computer Modern" font-weight="bold"><tspan y="-77.029" x="55.869 62.441373 67.47152 71.09395 75.747509 79.09197 83.673809 88.60532 91.94083 96.52266 100.30648 104.08134 106.37673 110.85993 118.51724 121.852748 126.78426 129.07967 131.37506 136.30658 141.33673">Autoregressiverollout</tspan></text>
<text xml:space="preserve" transform="matrix(1 0 -0 1 -.0000076293949 504.277)" font-size="6.9738" font-family="Computer Modern"><tspan y="-64.078" x="65.51 68.04149 71.33312 75.37095 78.66258 82.21922 87.96564 90.232128 93.726 99.33293 103.161548 106.65542 109.186908 110.95825 114.180149 117.88323">repeatforhorizon</tspan></text>
<text xml:space="preserve" transform="matrix(1 0 -0 1 -.0000076293949 504.277)" font-size="6.9738" font-family="Computer Modern" font-style="italic"><tspan y="-64.078" x="124.78729">H</tspan></text>
<text xml:space="preserve" transform="matrix(1 0 -0 1 -.0000076293949 504.277)" font-size="4.9813" font-family="Computer Modern" font-style="italic"><tspan y="-63.081" x="131.302">r</tspan></text>
<path transform="matrix(1,0,0,-1,266.409,31.630005)" d="M228.36017-249.31316H123.47705C120.72586-249.31316 118.49567-251.54337 118.49567-254.29454V-284.79167C118.49567-287.54283 120.72586-289.77305 123.47705-289.77305H228.36017C231.11136-289.77305 233.34156-287.54283 233.34156-284.79167V-254.29454C233.34156-251.54337 231.11136-249.31316 228.36017-249.31316ZM118.49567-289.77305" fill="#f5f6f7"/>
<path transform="matrix(1,0,0,-1,266.409,31.630005)" stroke-width=".54794" stroke-linecap="butt" stroke-dasharray="2.98883,2.98883" stroke-miterlimit="10" stroke-linejoin="miter" fill="none" stroke="#a6aaae" d="M228.36017-249.31316H123.47705C120.72586-249.31316 118.49567-251.54337 118.49567-254.29454V-284.79167C118.49567-287.54283 120.72586-289.77305 123.47705-289.77305H228.36017C231.11136-289.77305 233.34156-287.54283 233.34156-284.79167V-254.29454C233.34156-251.54337 231.11136-249.31316 228.36017-249.31316ZM118.49567-289.77305"/>
<text xml:space="preserve" transform="matrix(1 0 -0 1 0 504.277)" font-size="8.9664" font-family="Computer Modern" font-weight="bold"><tspan y="-212.129" x="393.957 399.70445 403.03996 407.7473 412.77748 416.56129 419.57398 424.2365 427.57203 435.3459 439.9277 443.2632 448.19474 458.38056 463.4107 468.11808 471.9019 476.4837 478.7791 481.07453 486.10469">Transformer2Dbaseline</tspan></text>
<text xml:space="preserve" transform="matrix(1 0 -0 1 0 504.277)" font-size="6.9738" font-family="Computer Modern"><tspan y="-199.178" x="392.656 395.33396 398.62559 404.51148 408.54234 412.04319 414.57469 418.13133 422.97114 426.52778 429.20573 431.88368 435.1753 439.0039 441.68186 443.4532 447.15629 454.06034 458.0912 461.3828 466.98976 470.69285 473.22434 474.99568 481.89277 485.1844 488.476 490.24736">temporalattentionpergridcell</tspan><tspan y="-189.215" x="422.346 426.17463 429.73127 432.5696 435.86125 437.63258 439.4039 443.2325 449.59959 453.2957 457.1243 458.89564">baselineonly</tspan></text>
<path transform="matrix(1,0,0,-1,266.409,31.630005)" stroke-width=".64757" stroke-linecap="butt" stroke-miterlimit="10" stroke-linejoin="miter" fill="none" stroke="#6b6b6b" d="M0-23.66V-36.90926"/>
<path transform="matrix(0,1,1,0,266.409,66.061679)" d="M5.88107 0 1.04561 1.82391 2.63947 0 1.04561-1.82391Z" fill="#6b6b6b"/>
<path transform="matrix(0,1,1,0,266.409,66.061679)" stroke-width=".64757" stroke-linecap="butt" stroke-miterlimit="10" stroke-linejoin="miter" fill="none" stroke="#6b6b6b" d="M5.88107 0 1.04561 1.82391 2.63947 0 1.04561-1.82391Z"/>
<path transform="matrix(1,0,0,-1,266.409,31.630005)" stroke-width=".64757" stroke-linecap="butt" stroke-miterlimit="10" stroke-linejoin="miter" fill="none" stroke="#6b6b6b" d="M0-88.5549V-101.80415"/>
<path transform="matrix(0,1,1,0,266.409,130.95658)" d="M5.88107 0 1.04561 1.82391 2.63947 0 1.04561-1.82391Z" fill="#6b6b6b"/>
<path transform="matrix(0,1,1,0,266.409,130.95658)" stroke-width=".64757" stroke-linecap="butt" stroke-miterlimit="10" stroke-linejoin="miter" fill="none" stroke="#6b6b6b" d="M5.88107 0 1.04561 1.82391 2.63947 0 1.04561-1.82391Z"/>
<path transform="matrix(1,0,0,-1,266.409,31.630005)" stroke-width=".64757" stroke-linecap="butt" stroke-miterlimit="10" stroke-linejoin="miter" fill="none" stroke="#6b6b6b" d="M0-163.08243V-176.33168"/>
<path transform="matrix(0,1,1,0,266.409,205.4841)" d="M5.88107 0 1.04561 1.82391 2.63947 0 1.04561-1.82391Z" fill="#6b6b6b"/>
<path transform="matrix(0,1,1,0,266.409,205.4841)" stroke-width=".64757" stroke-linecap="butt" stroke-miterlimit="10" stroke-linejoin="miter" fill="none" stroke="#6b6b6b" d="M5.88107 0 1.04561 1.82391 2.63947 0 1.04561-1.82391Z"/>
<path transform="matrix(1,0,0,-1,266.409,31.630005)" stroke-width=".64757" stroke-linecap="butt" stroke-miterlimit="10" stroke-linejoin="miter" fill="none" stroke="#6b6b6b" d="M0-227.97733V-241.22658"/>
<path transform="matrix(0,1,1,0,266.409,270.379)" d="M5.88107 0 1.04561 1.82391 2.63947 0 1.04561-1.82391Z" fill="#6b6b6b"/>
<path transform="matrix(0,1,1,0,266.409,270.379)" stroke-width=".64757" stroke-linecap="butt" stroke-miterlimit="10" stroke-linejoin="miter" fill="none" stroke="#6b6b6b" d="M5.88107 0 1.04561 1.82391 2.63947 0 1.04561-1.82391Z"/>
<path transform="matrix(1,0,0,-1,266.409,31.630005)" stroke-width=".64757" stroke-linecap="butt" stroke-miterlimit="10" stroke-linejoin="miter" fill="none" stroke="#6b6b6b" d="M0-293.53398V-306.78324"/>
<path transform="matrix(0,1,1,0,266.409,335.93565)" d="M5.88107 0 1.04561 1.82391 2.63947 0 1.04561-1.82391Z" fill="#6b6b6b"/>
<path transform="matrix(0,1,1,0,266.409,335.93565)" stroke-width=".64757" stroke-linecap="butt" stroke-miterlimit="10" stroke-linejoin="miter" fill="none" stroke="#6b6b6b" d="M5.88107 0 1.04561 1.82391 2.63947 0 1.04561-1.82391Z"/>
<path transform="matrix(1,0,0,-1,266.409,31.630005)" stroke-width=".64757" stroke-linecap="butt" stroke-miterlimit="10" stroke-linejoin="miter" fill="none" stroke="#6b6b6b" d="M0-358.4289V-371.67814"/>
<path transform="matrix(0,1,1,0,266.409,400.83058)" d="M5.88107 0 1.04561 1.82391 2.63947 0 1.04561-1.82391Z" fill="#6b6b6b"/>
<path transform="matrix(0,1,1,0,266.409,400.83058)" stroke-width=".64757" stroke-linecap="butt" stroke-miterlimit="10" stroke-linejoin="miter" fill="none" stroke="#6b6b6b" d="M5.88107 0 1.04561 1.82391 2.63947 0 1.04561-1.82391Z"/>
<path transform="matrix(1,0,0,-1,266.409,31.630005)" stroke-width=".59776" stroke-linecap="butt" stroke-dasharray="2.98883,2.98883" stroke-miterlimit="10" stroke-linejoin="miter" fill="none" stroke="#767c82" d="M82.78795-204.31732H175.91861V-245.07573"/>
<path transform="matrix(0,1,1,0,442.3276,274.43293)" d="M5.38507 0 .9652 1.66724 2.42224 0 .9652-1.66724Z" fill="#767c82"/>
<path transform="matrix(0,1,1,0,442.3276,274.43293)" stroke-width=".59776" stroke-linecap="butt" stroke-miterlimit="10" stroke-linejoin="miter" fill="none" stroke="#767c82" d="M5.38507 0 .9652 1.66724 2.42224 0 .9652-1.66724Z"/>
<path transform="matrix(1,0,0,-1,266.409,31.630005)" stroke-width=".59776" stroke-linecap="butt" stroke-dasharray="2.98883,2.98883" stroke-miterlimit="10" stroke-linejoin="miter" fill="none" stroke="#767c82" d="M175.91861-290.047V-334.7689H86.7514"/>
<path transform="matrix(-1,-0,0,1,355.43324,366.3989)" d="M5.38507 0 .9652 1.66724 2.42224 0 .9652-1.66724Z" fill="#767c82"/>
<path transform="matrix(-1,-0,0,1,355.43324,366.3989)" stroke-width=".59776" stroke-linecap="butt" stroke-miterlimit="10" stroke-linejoin="miter" fill="none" stroke="#767c82" d="M5.38507 0 .9652 1.66724 2.42224 0 .9652-1.66724Z"/>
<path transform="matrix(1,0,0,-1,266.409,31.630005)" stroke-width=".74721" stroke-linecap="butt" stroke-miterlimit="10" stroke-linejoin="miter" fill="none" stroke="#c27b37" d="M-82.78795-399.66377H-108.0762"/>
<path transform="matrix(-1,-0,0,1,160.9435,431.29377)" d="M6.02267 0 1.20651 1.81831 2.7975 0 1.20651-1.81831Z" fill="#c27b37"/>
<path transform="matrix(-1,-0,0,1,160.9435,431.29377)" stroke-width=".74721" stroke-linecap="butt" stroke-miterlimit="10" stroke-linejoin="miter" fill="none" stroke="#c27b37" d="M6.02267 0 1.20651 1.81831 2.7975 0 1.20651-1.81831Z"/>
<path transform="matrix(1,0,0,-1,266.409,31.630005)" stroke-width=".74721" stroke-linecap="butt" stroke-miterlimit="10" stroke-linejoin="miter" fill="none" stroke="#c27b37" d="M-165.99704-384.14125V0H-87.26393"/>
<path transform="matrix(1,0,0,-1,176.53437,31.630005)" d="M6.02267 0 1.20651 1.81831 2.7975 0 1.20651-1.81831Z" fill="#c27b37"/>
<path transform="matrix(1,0,0,-1,176.53437,31.630005)" stroke-width=".74721" stroke-linecap="butt" stroke-miterlimit="10" stroke-linejoin="miter" fill="none" stroke="#c27b37" d="M6.02267 0 1.20651 1.81831 2.7975 0 1.20651-1.81831Z"/>
<text xml:space="preserve" transform="matrix(1 0 -0 1 0 504.277)" font-size="7.9701" font-family="Computer Modern"><tspan y="-22.305" x="90.934 95.63636 103.02464 105.84606 110.69188 116.66946 122.92599 127.15811 136.09259 139.33643 143.09832 147.47389 151.30751 154.20066 158.26541 161.32593 165.08782 171.15306 175.38518 184.31966 189.73136 195.84442 203.74279 206.33307 210.32608 213.21923 216.98111 220.743 224.80776 228.05159 231.1121 233.1365 237.51209 244.56562 246.59001 250.96559 254.02611 261.08763 264.33146 268.93818 272.70008 276.46199 279.5225 282.41566 286.4804 291.32624 294.57008 298.94566 303.0104 306.07093 308.09535 312.1601 317.00593 323.7327 325.7571 329.66246 331.68687 336.06245 343.11598 348.90226 350.92668 353.98719 361.18418 366.03797 372.01554 378.27207 382.50419 391.43867 395.50343 399.879 407.076 411.14076 414.20127 417.26179 421.02369 425.39927 428.45979 430.4842 434.7163 439.0919">SM-FNO2Dseparates2DPDEforecastingintospectralspatialmixingwithFNO2Dandattention-</tspan><tspan y="-12.84" x="85.735 88.32529 91.21843 94.980319 101.56362 104.62414 108.386028 115.11279 119.727489 123.720508 126.61365 130.6784 135.52422 142.25098 146.01287 152.73963 156.73264 159.62578 166.36052 172.1468 174.1712 177.23172 184.42871 188.49347 195.69046 200.39282 205.09519 212.48346 217.65605 223.44234 227.81792 234.40122 236.6727 238.94417 243.17629 247.55187 250.445 257.02833 259.05274 265.11799 269.18275 276.3877 280.21336 283.1065 286.8684 291.244 293.2684 296.32893 300.09083 303.85273 306.91325 311.28883 314.18199 318.24674 323.09257 327.32469 331.23 334.9919 337.88508 341.7904 343.81483 347.57673 353.363 358.53559 362.91117 367.14329 373.0252 379.91139 384.52607 388.28797 391.18113 393.7714 397.7644 400.65757 407.38435 411.4491 415.82469 419.58659 426.17787 429.93977 431.96418 436.02894 438.05335 444.78013">freetemporalmemorywithanSSM.Thefigureisanarchitecturaloverview,notaperformanceclaim.</tspan></text>
</svg>
